<?xml version="1.0" encoding="utf-8"?>
<!-- Generator: Adobe Illustrator 26.5.0, SVG Export Plug-In . SVG Version: 6.00 Build 0)  -->
<svg version="1.1" id="Layer_1" xmlns="http://www.w3.org/2000/svg" xmlns:xlink="http://www.w3.org/1999/xlink" x="0px" y="0px"
	 viewBox="0 0 230 65" style="enable-background:new 0 0 230 65;" xml:space="preserve">
<style type="text/css">
	.st0{fill:#FFFFFF;}
</style>
<g>
	<g>
		<path class="st0" d="M3.68,49.14c0-12.66,0-25.25,0-37.93c2.54,0,5.09,0,7.76,0c0,5.77,0,11.51,0,17.25
			c0.08,0.03,0.15,0.06,0.23,0.09c0.78-0.93,1.56-1.85,2.33-2.79c3.84-4.66,7.67-9.33,11.54-13.96c0.3-0.36,0.89-0.65,1.35-0.66
			c2.7-0.06,5.41-0.03,8.27-0.03c-0.18,0.31-0.27,0.51-0.4,0.68c-4.43,5.46-8.86,10.92-13.33,16.35c-0.58,0.71-0.54,1.12,0.03,1.8
			c8.53,10.22,17.03,20.46,25.53,30.7c0.13,0.15,0.24,0.32,0.49,0.66c-1.04,0-1.91,0-2.78,0c-1.96,0-3.91-0.02-5.87,0.03
			c-0.68,0.02-1.13-0.2-1.57-0.73c-7.43-8.99-14.87-17.97-22.32-26.95c-1.09-1.31-2.18-2.62-3.48-4.18c0,6.74,0,13.16,0,19.66
			C8.83,49.14,6.31,49.14,3.68,49.14z"/>
		<path class="st0" d="M91.13,37.56c0.79,2.85,2.48,4.59,5.12,5.3c3.64,0.98,6.99,0.16,10.09-1.88c0.23-0.15,0.45-0.3,0.68-0.45
			c0.02-0.02,0.06-0.01,0.21-0.01c1,1.64,2.03,3.33,3.12,5.1c-1.46,1.36-3.12,2.38-4.95,3.05c-6.28,2.3-12.17,1.72-17.33-2.78
			c-5.01-4.37-6.01-11.32-3.63-16.83c2.71-6.27,8.88-9.75,15.41-8.97c8.07,0.97,12.8,7.42,11.66,15.88c-0.22,1.6-0.22,1.6-1.88,1.6
			c-5.73,0-11.46,0-17.19,0C92.05,37.56,91.65,37.56,91.13,37.56z M91.25,32.07c4.28,0,8.55,0,12.81,0
			c0.28-2.85-2.13-5.46-5.27-5.75C95.07,25.97,91.56,28.63,91.25,32.07z"/>
		<path class="st0" d="M59.41,33.3c-1.26,2.52-2.4,4.8-3.54,7.09c-1.45,2.91-2.96,5.8-4.32,8.75c-0.5,1.09-1.31,0.7-2.06,0.81
			c-0.74,0.11-1.02-0.31-1.28-0.88c-2.76-6.12-5.54-12.23-8.31-18.35c-1.39-3.06-2.78-6.11-4.16-9.17c-0.11-0.24-0.19-0.49-0.34-0.9
			c1.59,0,3.05,0,4.51,0c0.65,0,1.3,0,1.96,0c1.68,0,1.65,0.01,2.31,1.62c1.89,4.59,3.8,9.18,5.71,13.76
			c0.1,0.24,0.24,0.46,0.44,0.84c1.29-2.78,2.51-5.42,3.73-8.05c1.26-2.74,2.5-5.49,3.79-8.21c0.13-0.28,0.57-0.51,0.91-0.58
			c1.32-0.27,2.1,0.17,2.71,1.53c3.4,7.48,6.94,14.9,10.39,22.36c0.21,0.45,0.18,1.12,0.02,1.62c-0.39,1.24-0.94,2.43-1.39,3.64
			c-0.2,0.55-0.5,0.9-1.13,0.77c-0.7-0.15-1.54,0.4-2.04-0.65C65,44.51,62.63,39.76,60.28,35C60.04,34.51,59.78,34.03,59.41,33.3z"
			/>
		<path class="st0" d="M160.29,20.73c2.62,0,5.11,0,7.64,0c0.02,0.33,0.06,0.6,0.06,0.87c0,5.11,0.06,10.23-0.01,15.34
			c-0.08,5.32-2.32,9.43-7.23,11.74c-5.92,2.78-14.17,1.1-17.57-5.46c-1.08-2.09-1.49-4.33-1.5-6.66
			c-0.02-4.98,0.01-9.95-0.03-14.93c-0.01-0.77,0.23-1,0.99-0.99c2.22,0.05,4.44,0.02,6.78,0.02c0,0.52,0,0.92,0,1.32
			c0,5.08-0.02,10.16,0.01,15.23c0.03,4.37,4.12,6.93,7.99,4.99c2.16-1.08,2.86-3.04,2.87-5.3c0.02-4.98,0.01-9.95,0.01-14.93
			C160.29,21.6,160.29,21.22,160.29,20.73z"/>
		<path class="st0" d="M127.18,13.48c0,1.71,0,3.35,0,4.99c0,2.18,0,2.18,2.13,2.18c1.65,0,3.29,0,4.94,0
			c0.33,0,0.67,0.04,1.05,0.06c0,2.16,0,4.24,0,6.44c-2.68,0-5.34,0-8.06,0c-0.02,0.46-0.06,0.79-0.06,1.12c0,3.29-0.01,6.59,0,9.88
			c0.01,3.25,1.21,4.58,4.45,4.79c1.47,0.09,2.94,0.02,4.59,0.02c0,1.25,0,2.6,0,3.96c0,2.35,0.01,2.4-2.29,2.77
			c-2.81,0.46-5.61,0.35-8.33-0.58c-3.57-1.21-5.97-4.47-6.06-8.48c-0.1-4.05-0.06-8.1-0.08-12.15c0-0.4,0-0.8,0-1.29
			c-1.54,0-2.93,0-4.41,0c0-2.19,0-4.29,0-6.51c1.42,0,2.81,0,4.35,0c0-2.45,0-4.79,0-7.2C122.04,13.48,124.53,13.48,127.18,13.48z"
			/>
		<path class="st0" d="M72.28,39.71c-0.26-0.54-0.52-1.07-0.77-1.61c-0.84-1.8-1.71-3.58-2.49-5.41c-0.18-0.41-0.21-1.03-0.04-1.43
			c1.71-4.03,3.47-8.04,5.22-12.05c2.48-5.67,4.99-11.34,7.44-17.02c0.37-0.85,0.77-1.28,1.8-1.23c2.05,0.1,4.12,0.03,6.18,0.04
			C90,1,90.4,1.06,91.04,1.11C84.82,14.1,78.7,26.91,72.58,39.71C72.48,39.71,72.38,39.71,72.28,39.71z"/>
	</g>
	<g>
		<g>
			<path class="st0" d="M66.38,61.54l-1.08-2.52h-4.68l-1.08,2.52h-0.59l3.69-8.56h0.64l3.68,8.56H66.38z M60.84,58.53h4.25
				l-2.12-4.97L60.84,58.53z"/>
			<path class="st0" d="M71.09,61.69c-0.82,0-1.49-0.24-1.99-0.72c-0.51-0.48-0.76-1.12-0.76-1.92v-3.83h0.5v3.77
				c0,0.67,0.21,1.21,0.62,1.61c0.41,0.41,0.96,0.61,1.64,0.61s1.23-0.2,1.65-0.61s0.62-0.94,0.62-1.61v-3.77h0.5v3.83
				c0,0.8-0.25,1.44-0.76,1.92C72.59,61.45,71.92,61.69,71.09,61.69z"/>
			<path class="st0" d="M80.72,61.25c-0.5,0.29-1.07,0.43-1.69,0.43c-0.62,0-1.19-0.14-1.7-0.43c-0.51-0.29-0.91-0.69-1.2-1.19
				c-0.29-0.51-0.43-1.07-0.43-1.69s0.14-1.18,0.43-1.69c0.29-0.51,0.69-0.9,1.2-1.19s1.07-0.43,1.7-0.43
				c0.62,0,1.18,0.14,1.69,0.43c0.5,0.29,0.9,0.68,1.19,1.17l-0.43,0.25c-0.25-0.42-0.58-0.75-1.02-0.99
				c-0.43-0.25-0.91-0.37-1.43-0.37c-0.8,0-1.47,0.27-2.01,0.81c-0.54,0.54-0.81,1.21-0.81,2.02s0.27,1.48,0.81,2.02
				c0.54,0.54,1.21,0.81,2.01,0.81c0.52,0,1-0.12,1.43-0.37c0.43-0.25,0.77-0.58,1.02-1l0.43,0.25
				C81.62,60.57,81.22,60.97,80.72,61.25z"/>
			<path class="st0" d="M87.06,55.66h-2.1v4.39c0,0.4,0.1,0.7,0.3,0.88s0.49,0.27,0.88,0.27c0.33,0,0.63-0.08,0.91-0.24v0.47
				c-0.3,0.17-0.63,0.25-1.01,0.25c-0.51,0-0.9-0.13-1.18-0.38c-0.27-0.26-0.41-0.65-0.41-1.17v-4.47h-1.29v-0.46h1.29v-1.8h0.5v1.8
				h2.1V55.66z"/>
			<path class="st0" d="M89.4,53.47c-0.08,0.08-0.17,0.11-0.28,0.11c-0.11,0-0.21-0.04-0.29-0.12c-0.08-0.08-0.12-0.17-0.12-0.28
				c0-0.11,0.04-0.21,0.12-0.29c0.08-0.08,0.18-0.12,0.29-0.12c0.11,0,0.21,0.04,0.28,0.12c0.08,0.08,0.12,0.17,0.12,0.29
				S89.48,53.39,89.4,53.47z M88.87,61.54v-6.33h0.5v6.33H88.87z"/>
			<path class="st0" d="M96.29,61.25c-0.51,0.29-1.08,0.43-1.7,0.43c-0.62,0-1.19-0.14-1.7-0.43c-0.51-0.29-0.91-0.69-1.2-1.19
				c-0.29-0.51-0.43-1.07-0.43-1.69s0.14-1.18,0.43-1.69c0.29-0.51,0.69-0.9,1.2-1.19s1.07-0.43,1.7-0.43c0.62,0,1.19,0.14,1.7,0.43
				c0.51,0.29,0.91,0.69,1.2,1.19s0.44,1.07,0.44,1.69s-0.15,1.18-0.44,1.69S96.81,60.97,96.29,61.25z M92.58,60.39
				c0.54,0.54,1.21,0.81,2.01,0.81c0.8,0,1.47-0.27,2.01-0.81c0.54-0.54,0.81-1.21,0.81-2.02s-0.27-1.48-0.81-2.02
				s-1.21-0.81-2.01-0.81c-0.8,0-1.47,0.27-2.01,0.81c-0.54,0.54-0.81,1.21-0.81,2.02S92.05,59.85,92.58,60.39z"/>
			<path class="st0" d="M102.9,55.06c0.81,0,1.47,0.25,1.96,0.74c0.49,0.49,0.74,1.14,0.74,1.95v3.79h-0.5v-3.66
				c0-0.7-0.21-1.26-0.64-1.69c-0.43-0.43-1-0.64-1.7-0.64c-0.73,0-1.31,0.22-1.75,0.65c-0.44,0.43-0.66,1-0.66,1.71v3.64h-0.5
				v-6.33h0.5v1.33c0.23-0.47,0.56-0.83,1-1.09C101.78,55.19,102.3,55.06,102.9,55.06z"/>
			<path class="st0" d="M109.81,61.69c-0.51,0-0.97-0.09-1.4-0.27c-0.43-0.18-0.78-0.43-1.06-0.75l0.3-0.36
				c0.24,0.29,0.54,0.52,0.92,0.68c0.37,0.16,0.79,0.24,1.23,0.24c0.55,0,1-0.12,1.36-0.36c0.36-0.24,0.55-0.55,0.55-0.94
				c0-0.14-0.02-0.27-0.06-0.38c-0.04-0.11-0.11-0.21-0.21-0.3c-0.1-0.09-0.2-0.16-0.29-0.22c-0.1-0.06-0.23-0.12-0.4-0.18
				s-0.32-0.11-0.43-0.14c-0.11-0.03-0.28-0.07-0.49-0.13c-0.19-0.05-0.35-0.09-0.47-0.12s-0.27-0.08-0.45-0.14
				s-0.32-0.12-0.43-0.18c-0.11-0.06-0.23-0.13-0.35-0.22c-0.12-0.09-0.22-0.19-0.29-0.29c-0.07-0.1-0.13-0.22-0.18-0.37
				c-0.05-0.14-0.07-0.29-0.07-0.46c0-0.36,0.11-0.67,0.32-0.94s0.48-0.46,0.82-0.59c0.34-0.13,0.71-0.19,1.12-0.19
				c0.45,0,0.86,0.08,1.23,0.24c0.37,0.16,0.69,0.38,0.95,0.65l-0.29,0.38c-0.21-0.25-0.49-0.45-0.81-0.59
				c-0.33-0.14-0.69-0.21-1.07-0.21c-0.49,0-0.91,0.11-1.24,0.34c-0.33,0.22-0.5,0.52-0.5,0.88c0,0.15,0.02,0.28,0.07,0.39
				c0.04,0.12,0.12,0.22,0.22,0.31c0.1,0.09,0.2,0.17,0.29,0.23s0.23,0.12,0.41,0.18s0.32,0.11,0.43,0.14
				c0.11,0.03,0.28,0.08,0.49,0.13c0.19,0.05,0.35,0.09,0.47,0.12s0.26,0.08,0.44,0.13s0.32,0.12,0.42,0.17s0.22,0.13,0.35,0.22
				s0.22,0.19,0.29,0.29c0.07,0.1,0.13,0.22,0.17,0.36c0.05,0.14,0.07,0.3,0.07,0.47c0,0.55-0.23,0.99-0.68,1.32
				C111.08,61.52,110.5,61.69,109.81,61.69z"/>
			<path class="st0" d="M124.79,61.54h-0.68l-1.13-1.21c-0.78,0.91-1.71,1.36-2.79,1.36c-0.85,0-1.57-0.25-2.14-0.77
				c-0.58-0.51-0.86-1.15-0.86-1.93c0-0.27,0.04-0.52,0.12-0.75c0.08-0.24,0.18-0.44,0.3-0.62s0.28-0.35,0.47-0.51
				c0.19-0.17,0.37-0.31,0.55-0.42s0.38-0.24,0.61-0.36c-0.65-0.75-0.98-1.39-0.98-1.92c0-0.45,0.17-0.83,0.52-1.13
				c0.35-0.3,0.78-0.45,1.3-0.45c0.51,0,0.94,0.15,1.3,0.45s0.53,0.68,0.53,1.13c0,0.23-0.05,0.44-0.15,0.64s-0.25,0.38-0.45,0.55
				c-0.2,0.17-0.39,0.31-0.58,0.42c-0.19,0.12-0.43,0.25-0.72,0.4l2.97,3.16c0.38-0.56,0.69-1.22,0.92-1.97l0.45,0.14
				c-0.28,0.89-0.63,1.62-1.04,2.18L124.79,61.54z M120.2,61.21c0.93,0,1.75-0.41,2.45-1.23l-3.12-3.33
				c-0.27,0.15-0.5,0.29-0.7,0.43c-0.2,0.14-0.38,0.3-0.57,0.49s-0.32,0.4-0.42,0.63c-0.1,0.23-0.14,0.49-0.14,0.76
				c0,0.65,0.24,1.18,0.72,1.61C118.92,61,119.51,61.21,120.2,61.21z M120.07,53.26c-0.37,0-0.68,0.11-0.93,0.33
				c-0.25,0.22-0.38,0.49-0.38,0.82c0,0.44,0.31,1,0.92,1.68c0.22-0.11,0.4-0.21,0.54-0.29c0.14-0.08,0.29-0.17,0.45-0.28
				c0.16-0.11,0.29-0.22,0.38-0.32c0.09-0.1,0.17-0.22,0.23-0.36c0.06-0.14,0.09-0.28,0.09-0.43c0-0.33-0.12-0.61-0.38-0.82
				C120.76,53.37,120.45,53.26,120.07,53.26z"/>
			<path class="st0" d="M134.76,61.54l-3.18-3.76h-1.48v3.76h-0.54v-8.56h3.29c0.69,0,1.26,0.23,1.73,0.69
				c0.47,0.46,0.7,1.03,0.7,1.71c0,0.68-0.23,1.25-0.7,1.71c-0.47,0.46-1.05,0.69-1.74,0.69h-0.63l3.2,3.76H134.76z M130.1,53.47
				v3.84h2.74c0.54,0,0.99-0.18,1.34-0.55c0.36-0.37,0.54-0.83,0.54-1.38c0-0.54-0.18-1-0.54-1.36s-0.81-0.55-1.34-0.55H130.1z"/>
			<path class="st0" d="M143.25,58.37c0,0.02,0,0.06-0.01,0.11c0,0.05-0.01,0.08-0.01,0.1h-6.04c0.05,0.76,0.35,1.39,0.89,1.89
				c0.54,0.5,1.21,0.74,2,0.74c0.54,0,1.03-0.12,1.48-0.35s0.79-0.56,1.05-0.96l0.36,0.28c-0.3,0.47-0.71,0.84-1.21,1.1
				s-1.07,0.4-1.69,0.4c-0.97,0-1.78-0.32-2.43-0.95s-0.97-1.43-0.97-2.38c0-0.94,0.31-1.72,0.94-2.35
				c0.63-0.63,1.41-0.95,2.34-0.95c0.61,0,1.17,0.14,1.67,0.43s0.9,0.69,1.18,1.19C143.1,57.19,143.25,57.75,143.25,58.37z
				 M141.86,56.27c-0.52-0.49-1.15-0.74-1.91-0.74c-0.75,0-1.39,0.25-1.91,0.74c-0.52,0.49-0.8,1.12-0.85,1.87h5.53
				C142.67,57.39,142.38,56.76,141.86,56.27z"/>
			<path class="st0" d="M150.85,55.21h0.5v6.33h-0.5v-1.71c-0.25,0.57-0.64,1.02-1.15,1.36c-0.51,0.34-1.1,0.51-1.75,0.51
				c-0.61,0-1.17-0.14-1.66-0.43c-0.5-0.29-0.89-0.69-1.17-1.19c-0.28-0.51-0.42-1.07-0.42-1.69s0.14-1.18,0.42-1.69
				c0.28-0.51,0.67-0.9,1.17-1.19c0.5-0.29,1.05-0.43,1.66-0.43c0.65,0,1.24,0.17,1.75,0.51c0.51,0.34,0.9,0.79,1.15,1.35V55.21z
				 M148.03,61.2c0.8,0,1.47-0.27,2.01-0.81c0.54-0.54,0.81-1.21,0.81-2.02s-0.27-1.48-0.81-2.02c-0.54-0.54-1.21-0.81-2.01-0.81
				c-0.8,0-1.47,0.27-2.01,0.81s-0.81,1.21-0.81,2.02s0.27,1.48,0.81,2.02C146.56,60.93,147.23,61.2,148.03,61.2z"/>
			<path class="st0" d="M153.68,61.54V52.6h0.5v8.94H153.68z"/>
			<path class="st0" d="M159.89,55.66h-2.1v4.39c0,0.4,0.1,0.7,0.3,0.88s0.5,0.27,0.88,0.27c0.33,0,0.63-0.08,0.92-0.24v0.47
				c-0.3,0.17-0.63,0.25-1.01,0.25c-0.51,0-0.9-0.13-1.18-0.38s-0.41-0.65-0.41-1.17v-4.47h-1.29v-0.46h1.29v-1.8h0.5v1.8h2.1V55.66
				z"/>
			<path class="st0" d="M166.89,55.21h0.56l-3.71,7.9c-0.14,0.3-0.32,0.53-0.55,0.69c-0.23,0.16-0.48,0.24-0.75,0.24
				c-0.22,0-0.45-0.05-0.67-0.16c-0.22-0.1-0.42-0.24-0.57-0.42l0.25-0.37c0.11,0.14,0.25,0.25,0.41,0.33
				c0.16,0.08,0.33,0.13,0.51,0.13c0.39,0,0.69-0.22,0.92-0.65l0.67-1.36l-2.95-6.34h0.58l2.65,5.76L166.89,55.21z"/>
		</g>
	</g>
</g>
</svg>
