<?xml version="1.0" encoding="utf-8"?>
<!-- Generator: Adobe Illustrator 26.5.0, SVG Export Plug-In . SVG Version: 6.00 Build 0)  -->
<svg version="1.1" id="Layer_1" xmlns="http://www.w3.org/2000/svg" xmlns:xlink="http://www.w3.org/1999/xlink" x="0px" y="0px"
	 viewBox="0 0 168 65" style="enable-background:new 0 0 168 65;" xml:space="preserve">
<style type="text/css">
	.st0{fill:#FFFFFF;}
	.st1{fill:#F7951D;}
</style>
<g>
	<g>
		<path class="st0" d="M1.3,50c0-12.2,0-24.4,0-36.6c2.5,0,4.9,0,7.5,0c0,5.6,0,11.1,0,16.7c0.1,0,0.1,0.1,0.2,0.1
			c0.8-0.9,1.5-1.8,2.3-2.7c3.7-4.5,7.4-9,11.1-13.5c0.3-0.3,0.9-0.6,1.3-0.6c2.6-0.1,5.2,0,8,0c-0.2,0.3-0.3,0.5-0.4,0.7
			c-4.3,5.3-8.6,10.5-12.9,15.8c-0.6,0.7-0.5,1.1,0,1.7c8.2,9.9,16.4,19.8,24.7,29.6c0.1,0.1,0.2,0.3,0.5,0.6c-1,0-1.8,0-2.7,0
			c-1.9,0-3.8,0-5.7,0c-0.7,0-1.1-0.2-1.5-0.7c-7.2-8.7-14.4-17.4-21.5-26c-1-1.3-2.1-2.5-3.4-4c0,6.5,0,12.7,0,19
			C6.3,50,3.9,50,1.3,50z"/>
		<path class="st0" d="M85.8,38.8c0.8,2.7,2.4,4.4,4.9,5.1c3.5,0.9,6.8,0.2,9.7-1.8c0.2-0.1,0.4-0.3,0.7-0.4c0,0,0.1,0,0.2,0
			c1,1.6,2,3.2,3,4.9c-1.4,1.3-3,2.3-4.8,2.9c-6.1,2.2-11.7,1.7-16.7-2.7C78,42.6,77,35.9,79.3,30.6c2.6-6.1,8.6-9.4,14.9-8.7
			c7.8,0.9,12.4,7.2,11.3,15.3c-0.2,1.5-0.2,1.5-1.8,1.5c-5.5,0-11.1,0-16.6,0C86.7,38.8,86.3,38.8,85.8,38.8z M85.9,33.5
			c4.1,0,8.3,0,12.4,0c0.3-2.8-2.1-5.3-5.1-5.6C89.6,27.6,86.2,30.2,85.9,33.5z"/>
		<path class="st0" d="M55.1,34.7c-1.2,2.4-2.3,4.6-3.4,6.8c-1.4,2.8-2.9,5.6-4.2,8.5c-0.5,1-1.3,0.7-2,0.8c-0.7,0.1-1-0.3-1.2-0.9
			c-2.7-5.9-5.3-11.8-8-17.7c-1.3-3-2.7-5.9-4-8.9c-0.1-0.2-0.2-0.5-0.3-0.9c1.5,0,2.9,0,4.4,0c0.6,0,1.3,0,1.9,0
			c1.6,0,1.6,0,2.2,1.6c1.8,4.4,3.7,8.9,5.5,13.3c0.1,0.2,0.2,0.4,0.4,0.8c1.2-2.7,2.4-5.2,3.6-7.8c1.2-2.6,2.4-5.3,3.7-7.9
			c0.1-0.3,0.6-0.5,0.9-0.6c1.3-0.3,2,0.2,2.6,1.5c3.3,7.2,6.7,14.4,10,21.6c0.2,0.4,0.2,1.1,0,1.6c-0.4,1.2-0.9,2.3-1.3,3.5
			c-0.2,0.5-0.5,0.9-1.1,0.7c-0.7-0.1-1.5,0.4-2-0.6c-2.2-4.6-4.5-9.2-6.8-13.8C55.8,35.9,55.5,35.4,55.1,34.7z"/>
		<path class="st0" d="M152.5,22.6c2.5,0,4.9,0,7.4,0c0,0.3,0.1,0.6,0.1,0.8c0,4.9,0.1,9.9,0,14.8c-0.1,5.1-2.2,9.1-7,11.3
			c-5.7,2.7-13.7,1.1-17-5.3c-1-2-1.4-4.2-1.4-6.4c0-4.8,0-9.6,0-14.4c0-0.7,0.2-1,1-1c2.1,0,4.3,0,6.6,0c0,0.5,0,0.9,0,1.3
			c0,4.9,0,9.8,0,14.7c0,4.2,4,6.7,7.7,4.8c2.1-1,2.8-2.9,2.8-5.1c0-4.8,0-9.6,0-14.4C152.5,23.4,152.5,23,152.5,22.6z"/>
		<path class="st0" d="M120.6,15.6c0,1.6,0,3.2,0,4.8c0,2.1,0,2.1,2.1,2.1c1.6,0,3.2,0,4.8,0c0.3,0,0.6,0,1,0.1c0,2.1,0,4.1,0,6.2
			c-2.6,0-5.2,0-7.8,0c0,0.4-0.1,0.8-0.1,1.1c0,3.2,0,6.4,0,9.5c0,3.1,1.2,4.4,4.3,4.6c1.4,0.1,2.8,0,4.4,0c0,1.2,0,2.5,0,3.8
			c0,2.3,0,2.3-2.2,2.7c-2.7,0.4-5.4,0.3-8-0.6c-3.4-1.2-5.8-4.3-5.9-8.2c-0.1-3.9-0.1-7.8-0.1-11.7c0-0.4,0-0.8,0-1.2
			c-1.5,0-2.8,0-4.3,0c0-2.1,0-4.1,0-6.3c1.4,0,2.7,0,4.2,0c0-2.4,0-4.6,0-7C115.6,15.6,118,15.6,120.6,15.6z"/>
		<path class="st1" d="M67.6,40.9c-0.2-0.5-0.5-1-0.7-1.6c-0.8-1.7-1.6-3.5-2.4-5.2c-0.2-0.4-0.2-1,0-1.4c1.6-3.9,3.3-7.8,5-11.6
			c2.4-5.5,4.8-10.9,7.2-16.4c0.4-0.8,0.7-1.2,1.7-1.2c2,0.1,4,0,6,0c0.4,0,0.8,0.1,1.4,0.1c-6,12.5-11.9,24.9-17.8,37.3
			C67.8,40.9,67.7,40.9,67.6,40.9z"/>
	</g>
</g>
</svg>
